<svg version="1.1" id="Layer_1" xmlns="http://www.w3.org/2000/svg" xmlns:xlink="http://www.w3.org/1999/xlink" x="0px" y="0px"
	 width="100%" viewBox="0 0 373 79" enable-background="new 0 0 373 79" xml:space="preserve">
<path fill="none" opacity="1.000000" stroke="none" 
	d="
M180.000000,1.000000 
	C244.606567,1.000000 309.213135,1.000000 373.909851,1.000000 
	C373.909851,27.248486 373.909851,53.497387 373.909851,80.000000 
	C308.312653,80.000000 242.624985,80.000000 176.147491,79.695511 
	C175.685287,79.022758 175.945053,78.450615 176.350327,78.315804 
	C189.172562,74.050552 192.505859,69.261856 191.771179,55.579987 
	C191.348663,54.845947 191.041733,54.306126 190.628342,54.206036 
	C182.142029,52.151371 180.182541,53.579876 179.548004,62.118484 
	C178.054977,66.770874 174.329742,66.535263 171.289185,65.685799 
	C170.105270,65.355042 169.229843,62.108345 169.110291,60.135540 
	C168.809616,55.173767 169.024582,50.181053 169.023697,45.200745 
	C169.022202,36.895626 169.023849,28.590481 169.002457,20.285402 
	C168.994873,17.339521 169.420074,13.819224 172.914886,14.274985 
	C175.439224,14.604185 179.687378,17.558872 179.620605,19.198162 
	C179.315002,26.700432 184.273651,24.769781 188.255234,25.010595 
	C191.072052,25.180965 191.991501,23.930717 192.045685,21.176762 
	C192.200897,13.288696 187.944962,8.167054 181.874527,3.738391 
	C181.264267,3.233930 180.631165,3.067125 180.021896,2.942477 
	C180.045731,2.984633 180.128860,2.934919 179.958328,2.563321 
	C179.858536,1.794481 179.929260,1.397241 180.000000,1.000000 
M253.122711,8.033895 
	C249.852859,8.033895 246.582993,8.033895 242.712738,8.033895 
	C242.712738,29.954321 242.712738,51.288288 242.712738,73.153870 
	C247.134323,73.153870 250.881607,73.153870 254.778885,73.153870 
	C255.565475,65.114502 253.083618,56.879150 260.231812,50.763241 
	C262.953491,57.573101 265.446167,64.039131 268.171021,70.405800 
	C268.633759,71.487022 270.037537,72.783424 271.102570,72.876076 
	C274.659790,73.185501 278.260651,72.993340 282.216644,72.993340 
	C281.892151,71.502319 281.828186,70.692017 281.541626,69.970062 
	C278.033752,61.132191 274.826569,52.153557 270.849670,43.530441 
	C267.968170,37.282482 266.969452,32.218765 271.802795,26.055998 
	C275.840515,20.907665 277.902039,14.209442 280.933197,8.004221 
	C277.037354,8.004221 273.548065,7.759934 270.122406,8.120371 
	C268.683807,8.271736 266.673767,9.386557 266.129089,10.603141 
	C262.554291,18.587770 259.309082,26.719954 255.148132,34.515842 
	C255.098404,28.370260 255.135437,22.222179 254.958450,16.080265 
	C254.882217,13.435051 254.362640,10.802611 253.122711,8.033895 
M323.050323,54.098892 
	C322.994568,44.387783 322.938843,34.676674 322.961578,24.504742 
	C322.961578,24.504742 322.836700,24.054272 322.968292,23.236864 
	C322.643158,17.977686 321.226074,13.206974 316.550232,10.127021 
	C309.712097,5.622791 302.223969,6.150578 294.886414,8.157378 
	C289.234192,9.703243 284.987366,16.398268 285.017700,22.992775 
	C284.679260,32.514118 284.263550,42.033768 284.054626,51.557953 
	C283.999634,54.064461 284.584381,56.584999 285.244781,59.763042 
	C286.592377,66.329491 289.392120,71.761482 296.642761,73.217522 
	C299.508850,73.793076 302.503937,74.053558 305.425537,73.965866 
	C315.318359,73.668961 323.293945,66.940460 322.998596,55.500988 
	C322.998596,55.500988 322.908661,55.030716 323.050323,54.098892 
M331.871033,72.968773 
	C335.135437,72.968773 338.399872,72.968773 341.999207,72.968773 
	C341.999207,65.094833 341.862762,57.802334 342.118561,50.523609 
	C342.167572,49.129234 343.760315,47.789108 344.640869,46.423965 
	C345.713135,47.539696 347.322418,48.474590 347.769073,49.800991 
	C350.343109,57.444996 352.642151,65.181602 354.990356,72.744949 
	C359.649750,72.744949 363.736755,72.744949 368.410278,72.744949 
	C366.535248,67.117851 364.708984,61.913143 363.072266,56.649506 
	C361.352020,51.117397 356.295197,45.357540 363.958374,40.240395 
	C364.608521,39.806248 364.955353,38.502964 364.968811,37.596397 
	C365.070251,30.773317 365.701904,23.867521 364.864349,17.150105 
	C364.209229,11.895851 357.242310,7.584662 351.648102,7.658412 
	C344.749054,7.749363 337.852020,7.988534 330.454590,8.107118 
	C330.341858,8.392477 330.229095,8.677835 329.953949,9.892809 
	C330.008087,30.606256 330.062225,51.319702 330.094666,72.534798 
	C330.379395,72.635513 330.664154,72.736229 331.871033,72.968773 
M232.550934,68.981018 
	C237.972610,62.790588 238.610306,55.099804 236.263229,48.161255 
	C233.886780,41.135853 227.918457,36.318451 220.414261,33.948097 
	C214.396744,32.047344 212.164688,28.143059 213.004074,21.899252 
	C213.446594,18.607523 215.401367,17.113897 218.642441,16.981022 
	C221.744385,16.853848 223.700241,17.897436 224.063614,21.297089 
	C224.229233,22.846523 224.936523,24.338057 225.344559,25.679686 
	C229.030258,25.679686 232.447998,25.679686 235.799301,25.679686 
	C237.301453,17.420061 232.550873,10.229687 227.871231,8.395407 
	C220.092133,5.346237 209.185959,6.085956 204.160995,12.153934 
	C199.946976,17.242647 201.186691,23.046568 200.977325,28.688103 
	C200.794235,33.621899 202.704239,37.587997 207.196732,40.073597 
	C210.616425,41.965645 213.844284,44.340553 217.456635,45.713577 
	C221.912003,47.407021 223.771088,50.471329 224.428955,54.852814 
	C224.948807,58.314980 222.597809,63.054935 219.480728,63.750412 
	C215.159805,64.714493 213.583405,61.778564 212.772598,58.328159 
	C211.966827,54.899212 210.172318,53.343369 206.518433,53.873806 
	C204.460327,54.172581 202.323318,53.927654 200.279251,53.927654 
	C199.112976,62.286880 201.413345,68.494171 208.641739,72.151810 
	C216.093719,75.922592 226.763626,74.605637 232.550934,68.981018 
z"/>
<path fill="none" opacity="1.000000" stroke="none" 
	d="
M56.000000,1.000000 
	C93.020897,1.000000 130.041794,1.000000 167.852783,1.243445 
	C167.723953,2.304257 166.805008,3.121623 165.923370,3.956340 
	C165.960693,3.973690 165.992249,3.897672 165.669678,3.939262 
	C164.858231,4.296463 164.369339,4.612073 163.910995,4.947094 
	C163.941528,4.966504 163.974442,4.902068 163.705170,4.973754 
	C163.258438,5.357028 163.080978,5.668616 162.945023,5.982753 
	C162.986511,5.985301 162.989838,5.902236 162.708221,5.977435 
	C162.215515,6.371179 162.004410,6.689723 161.474350,7.134774 
	C158.271362,10.268916 155.967361,13.491985 157.083847,18.476500 
	C157.058029,31.616831 157.109726,44.294987 157.082840,57.192677 
	C157.004257,57.412212 156.956680,57.876129 156.698334,57.974461 
	C156.612213,58.423534 156.784454,58.774277 156.971466,59.439514 
	C157.037613,60.168686 157.089005,60.583363 157.064178,61.298553 
	C156.952118,62.425220 156.916260,63.251362 156.935059,64.465805 
	C157.637253,70.370171 163.377731,76.326973 168.958023,77.624329 
	C170.094681,77.888588 170.992218,79.181358 172.000000,80.000000 
	C134.645767,80.000000 97.291542,80.000000 59.143837,79.717834 
	C59.546837,78.642632 60.748356,77.857079 61.938892,77.055229 
	C66.296204,74.120506 71.366272,71.850136 74.863136,68.109741 
	C83.455025,58.919502 87.415672,48.194542 85.180176,35.059704 
	C82.663933,20.275429 74.513199,10.757438 61.358829,4.683949 
	C59.419086,3.788351 57.778824,2.244125 56.000000,1.000000 
M148.697983,3.190657 
	C139.043488,3.121470 129.387894,3.114568 119.735161,2.944764 
	C116.876328,2.894473 115.780258,4.070239 115.999695,6.804653 
	C116.353745,11.216491 116.977737,15.634563 116.932144,20.044258 
	C116.857346,27.280392 116.031601,34.513802 116.075935,41.744961 
	C116.144928,52.996246 116.666496,64.245071 117.054230,75.492943 
	C117.070107,75.953400 117.676140,76.393509 118.932961,76.993324 
	C127.755013,76.999733 136.582458,76.825096 145.396866,77.087944 
	C149.891037,77.221954 149.833237,74.557823 150.065567,71.424583 
	C150.334961,67.791885 148.748840,66.816414 145.375153,66.947144 
	C139.953110,67.157249 134.516998,67.003510 129.186951,67.003510 
	C128.772079,60.771839 128.314331,55.203056 128.068207,49.624935 
	C127.952232,46.996742 128.531891,44.813286 132.094528,44.947460 
	C136.410080,45.109978 140.740158,44.887058 145.851288,44.961182 
	C149.073166,42.336044 148.721817,38.746925 147.108475,35.893299 
	C146.343674,34.540531 143.140839,34.295403 140.987411,34.066051 
	C138.211380,33.770390 135.360260,34.187862 132.581665,33.904377 
	C131.350662,33.778778 129.192230,32.673691 129.200653,32.036339 
	C129.280029,26.039911 129.737137,20.048485 131.009964,14.005095 
	C135.990463,14.002860 140.977463,14.139907 145.947205,13.907519 
	C147.312653,13.843669 149.700287,12.769936 149.768631,11.996178 
	C150.001511,9.359549 149.408813,6.650001 148.697983,3.190657 
z"/>
<path fill="#8DD1E9" opacity="1.000000" stroke="none" 
	d="
M33.000000,1.000000 
	C36.692909,1.000000 40.385818,1.000000 44.540359,1.463732 
	C44.999729,5.092377 45.280495,8.295529 44.860527,11.404011 
	C44.684376,12.707806 43.260170,14.336812 41.993584,14.905829 
	C38.356197,16.539930 33.991249,16.985523 30.865396,19.227276 
	C26.057533,22.675308 21.164612,26.657900 20.964190,34.003212 
	C22.721893,34.003212 24.200882,34.003063 25.679869,34.003235 
	C31.676571,34.003933 37.678398,33.852112 43.668365,34.053364 
	C48.535477,34.216896 51.505997,37.722393 50.995686,42.169991 
	C50.607647,45.551968 46.613167,48.019028 42.597561,47.903492 
	C35.807362,47.708126 29.007463,47.849861 21.746481,47.849861 
	C24.400152,55.606209 27.883499,62.417339 35.435627,63.784801 
	C45.486565,65.604713 45.944698,71.767860 45.001278,79.500587 
	C44.981258,79.664665 44.999573,79.833427 45.000000,80.000000 
	C41.638714,80.000000 38.277424,80.000000 34.787514,79.713974 
	C29.981688,76.655968 24.948858,74.340508 20.694193,71.026115 
	C8.098502,61.214066 5.377641,47.490353 7.183831,32.628437 
	C7.767394,27.826696 9.544647,22.802509 12.083242,18.686403 
	C16.633083,11.309245 23.188896,5.837936 31.593935,2.899939 
	C32.208862,2.684989 32.537994,1.652434 33.000000,1.000000 
z"/>
<path fill="none" opacity="1.000000" stroke="none" 
	d="
M45.333332,80.000000 
	C44.999573,79.833427 44.981258,79.664665 45.001278,79.500587 
	C45.944698,71.767860 45.486565,65.604713 35.435627,63.784801 
	C27.883499,62.417339 24.400152,55.606209 21.746481,47.849861 
	C29.007463,47.849861 35.807362,47.708126 42.597561,47.903492 
	C46.613167,48.019028 50.607647,45.551968 50.995686,42.169991 
	C51.505997,37.722393 48.535477,34.216896 43.668365,34.053364 
	C37.678398,33.852112 31.676571,34.003933 25.679869,34.003235 
	C24.200882,34.003063 22.721893,34.003212 20.964190,34.003212 
	C21.164612,26.657900 26.057533,22.675308 30.865396,19.227276 
	C33.991249,16.985523 38.356197,16.539930 41.993584,14.905829 
	C43.260170,14.336812 44.684376,12.707806 44.860527,11.404011 
	C45.280495,8.295529 44.999729,5.092377 45.000996,1.463732 
	C45.444447,1.000000 45.888889,1.000000 46.659988,1.434542 
	C47.356770,6.129066 47.726902,10.389048 48.108105,14.776454 
	C58.578575,15.811040 70.365257,25.904650 71.009476,34.653744 
	C72.531662,55.326347 65.517258,61.724007 47.000000,66.620522 
	C47.000000,71.045540 47.000000,75.522774 47.000000,80.000000 
	C46.555553,80.000000 46.111111,80.000000 45.333332,80.000000 
z"/>
<path fill="#8FD2EA" opacity="1.000000" stroke="none" 
	d="
M172.399994,80.000000 
	C170.992218,79.181358 170.094681,77.888588 168.958023,77.624329 
	C163.377731,76.326973 157.637253,70.370171 157.160797,64.266472 
	C157.268066,62.785240 157.204239,61.891640 157.140411,60.998035 
	C157.089005,60.583363 157.037613,60.168686 156.983398,59.127251 
	C156.972610,58.292374 156.964645,58.084251 156.956680,57.876129 
	C156.956680,57.876129 157.004257,57.412212 157.297302,56.843357 
	C157.725693,46.461681 157.932983,36.649006 157.952423,26.835957 
	C157.958252,23.895947 157.439697,20.954897 157.161377,18.014324 
	C155.967361,13.491985 158.271362,10.268916 161.745743,7.027997 
	C162.554016,6.497224 162.771927,6.199734 162.989838,5.902240 
	C162.989838,5.902236 162.986511,5.985301 163.225098,5.922866 
	C163.633942,5.540977 163.804199,5.221523 163.974442,4.902069 
	C163.974442,4.902068 163.941528,4.966504 164.243500,5.021992 
	C165.027725,4.684211 165.509979,4.290941 165.992249,3.897672 
	C165.992249,3.897672 165.960693,3.973690 166.352234,4.021056 
	C171.205475,3.690588 175.667175,3.312754 180.128860,2.934919 
	C180.128860,2.934919 180.045731,2.984633 180.148575,3.207955 
	C180.784836,3.646200 181.318268,3.861124 181.851685,4.076048 
	C187.944962,8.167054 192.200897,13.288696 192.045685,21.176762 
	C191.991501,23.930717 191.072052,25.180965 188.255234,25.010595 
	C184.273651,24.769781 179.315002,26.700432 179.620605,19.198162 
	C179.687378,17.558872 175.439224,14.604185 172.914886,14.274985 
	C169.420074,13.819224 168.994873,17.339521 169.002457,20.285402 
	C169.023849,28.590481 169.022202,36.895626 169.023697,45.200745 
	C169.024582,50.181053 168.809616,55.173767 169.110291,60.135540 
	C169.229843,62.108345 170.105270,65.355042 171.289185,65.685799 
	C174.329742,66.535263 178.054977,66.770874 179.872375,61.887562 
	C180.879013,59.778671 181.225861,58.049889 181.641357,55.978973 
	C185.214813,55.978973 188.526001,55.978973 191.837189,55.978973 
	C192.505859,69.261856 189.172562,74.050552 176.350327,78.315804 
	C175.945053,78.450615 175.685287,79.022758 175.678833,79.695511 
	C174.933334,80.000000 173.866653,80.000000 172.399994,80.000000 
z"/>
<path fill="#8ED2E9" opacity="1.000000" stroke="none" 
	d="
M47.460636,80.000000 
	C47.000000,75.522774 47.000000,71.045540 47.000000,66.620522 
	C65.517258,61.724007 72.531662,55.326347 71.009476,34.653744 
	C70.365257,25.904650 58.578575,15.811040 48.108105,14.776454 
	C47.726902,10.389048 47.356770,6.129066 46.993320,1.434542 
	C49.700012,1.000000 52.400028,1.000000 55.550018,1.000000 
	C57.778824,2.244125 59.419086,3.788351 61.358829,4.683949 
	C74.513199,10.757438 82.663933,20.275429 85.180176,35.059704 
	C87.415672,48.194542 83.455025,58.919502 74.863136,68.109741 
	C71.366272,71.850136 66.296204,74.120506 61.938892,77.055229 
	C60.748356,77.857079 59.546837,78.642632 58.675179,79.717834 
	C55.307091,80.000000 51.614182,80.000000 47.460636,80.000000 
z"/>
<path fill="none" opacity="1.000000" stroke="none" 
	d="
M32.531342,1.000000 
	C32.537994,1.652434 32.208862,2.684989 31.593935,2.899939 
	C23.188896,5.837936 16.633083,11.309245 12.083242,18.686403 
	C9.544647,22.802509 7.767394,27.826696 7.183831,32.628437 
	C5.377641,47.490353 8.098502,61.214066 20.694193,71.026115 
	C24.948858,74.340508 29.981688,76.655968 34.329445,79.713974 
	C23.033524,80.000000 12.067045,80.000000 1.050284,80.000000 
	C1.050284,53.780521 1.050284,27.560923 1.050284,1.000000 
	C11.351727,1.000000 21.707205,1.000000 32.531342,1.000000 
z"/>
<path fill="#F0F9FC" opacity="1.000000" stroke="none" 
	d="
M179.958328,2.563321 
	C175.667175,3.312754 171.205475,3.690588 166.314926,4.003706 
	C166.805008,3.121623 167.723953,2.304257 168.321442,1.243445 
	C171.692902,1.000000 175.385818,1.000000 179.539368,1.000000 
	C179.929260,1.397241 179.858536,1.794481 179.958328,2.563321 
z"/>
<path fill="#929292" opacity="1.000000" stroke="none" 
	d="
M330.116333,72.033150 
	C330.062225,51.319702 330.008087,30.606256 330.209778,9.335449 
	C330.678345,8.612931 330.841156,8.408118 330.954102,8.163652 
	C337.852020,7.988534 344.749054,7.749363 351.648102,7.658412 
	C357.242310,7.584662 364.209229,11.895851 364.864349,17.150105 
	C365.701904,23.867521 365.070251,30.773317 364.968811,37.596397 
	C364.955353,38.502964 364.608521,39.806248 363.958374,40.240395 
	C356.295197,45.357540 361.352020,51.117397 363.072266,56.649506 
	C364.708984,61.913143 366.535248,67.117851 368.410278,72.744949 
	C363.736755,72.744949 359.649750,72.744949 354.990356,72.744949 
	C352.642151,65.181602 350.343109,57.444996 347.769073,49.800991 
	C347.322418,48.474590 345.713135,47.539696 344.640869,46.423962 
	C343.760315,47.789108 342.167572,49.129234 342.118561,50.523609 
	C341.862762,57.802334 341.999207,65.094833 341.999207,72.968773 
	C338.399872,72.968773 335.135437,72.968773 331.307709,72.733719 
	C330.580078,72.282753 330.370728,72.127579 330.116333,72.033150 
M346.374573,17.996611 
	C344.963440,18.101633 343.552307,18.206656 342.205261,18.306906 
	C342.205261,24.777010 342.205261,30.742512 342.205261,36.682846 
	C344.338715,36.440002 346.262695,36.086601 348.195496,36.029545 
	C351.984802,35.917679 353.965759,34.121109 353.998260,30.291327 
	C354.013824,28.458803 353.924713,26.622066 354.018402,24.794178 
	C354.263092,20.021622 352.109985,17.699305 346.374573,17.996611 
z"/>
<path fill="#929292" opacity="1.000000" stroke="none" 
	d="
M322.865051,55.960777 
	C323.293945,66.940460 315.318359,73.668961 305.425537,73.965866 
	C302.503937,74.053558 299.508850,73.793076 296.642761,73.217522 
	C289.392120,71.761482 286.592377,66.329491 285.383179,59.146763 
	C285.678711,49.451832 285.918274,40.373440 285.947144,31.294378 
	C285.956909,28.221680 285.433746,25.147287 285.154114,22.073669 
	C284.987366,16.398268 289.234192,9.703243 294.886414,8.157378 
	C302.223969,6.150578 309.712097,5.622791 316.550232,10.127021 
	C321.226074,13.206974 322.643158,17.977686 322.802551,23.751566 
	C322.492004,24.549580 322.574097,24.782679 322.883118,24.965567 
	C322.938843,34.676674 322.994568,44.387783 322.848999,54.653770 
	C322.451996,55.502434 322.524475,55.753143 322.865051,55.960777 
M311.002930,45.479465 
	C311.002899,38.989101 311.028412,32.498608 310.994904,26.008419 
	C310.967133,20.630442 308.152344,17.024937 304.046692,16.999088 
	C299.929382,16.973169 297.031586,20.583958 297.006836,25.910215 
	C296.969696,33.898178 296.996643,41.886436 296.997406,49.874573 
	C296.997589,51.871597 296.815002,53.890305 297.043640,55.861088 
	C297.503082,59.820969 298.845123,63.369392 303.545715,63.695862 
	C307.143280,63.945721 310.767975,59.799690 310.972717,55.454258 
	C311.113556,52.465294 311.001801,49.464424 311.002930,45.479465 
z"/>
<path fill="#939393" opacity="1.000000" stroke="none" 
	d="
M255.956284,34.803974 
	C259.309082,26.719954 262.554291,18.587770 266.129089,10.603141 
	C266.673767,9.386557 268.683807,8.271736 270.122406,8.120371 
	C273.548065,7.759934 277.037354,8.004221 280.933197,8.004221 
	C277.902039,14.209442 275.840515,20.907665 271.802795,26.055998 
	C266.969452,32.218765 267.968170,37.282482 270.849670,43.530441 
	C274.826569,52.153557 278.033752,61.132191 281.541626,69.970062 
	C281.828186,70.692017 281.892151,71.502319 282.216644,72.993340 
	C278.260651,72.993340 274.659790,73.185501 271.102570,72.876076 
	C270.037537,72.783424 268.633759,71.487022 268.171021,70.405800 
	C265.446167,64.039131 262.953491,57.573101 260.231812,50.763241 
	C253.083618,56.879150 255.565475,65.114502 254.778885,73.153870 
	C250.881607,73.153870 247.134323,73.153870 242.712738,73.153870 
	C242.712738,51.288288 242.712738,29.954321 242.712738,8.033895 
	C246.582993,8.033895 249.852859,8.033895 253.574310,8.557143 
	C254.025925,18.372032 254.025925,27.663673 254.025925,36.955315 
	C254.471558,36.977318 254.917175,36.999317 255.362808,37.021320 
	C255.560623,36.282204 255.758453,35.543087 255.956284,34.803974 
z"/>
<path fill="#939393" opacity="1.000000" stroke="none" 
	d="
M232.291916,69.257202 
	C226.763626,74.605637 216.093719,75.922592 208.641739,72.151810 
	C201.413345,68.494171 199.112976,62.286880 200.279251,53.927654 
	C202.323318,53.927654 204.460327,54.172581 206.518433,53.873806 
	C210.172318,53.343369 211.966827,54.899212 212.772598,58.328159 
	C213.583405,61.778564 215.159805,64.714493 219.480728,63.750412 
	C222.597809,63.054935 224.948807,58.314980 224.428955,54.852814 
	C223.771088,50.471329 221.912003,47.407021 217.456635,45.713577 
	C213.844284,44.340553 210.616425,41.965645 207.196732,40.073597 
	C202.704239,37.587997 200.794235,33.621899 200.977325,28.688103 
	C201.186691,23.046568 199.946976,17.242647 204.160995,12.153934 
	C209.185959,6.085956 220.092133,5.346237 227.871231,8.395407 
	C232.550873,10.229687 237.301453,17.420061 235.799301,25.679686 
	C232.447998,25.679686 229.030258,25.679686 225.344559,25.679686 
	C224.936523,24.338057 224.229233,22.846523 224.063614,21.297089 
	C223.700241,17.897436 221.744385,16.853848 218.642441,16.981022 
	C215.401367,17.113897 213.446594,18.607523 213.004074,21.899252 
	C212.164688,28.143059 214.396744,32.047344 220.414261,33.948097 
	C227.918457,36.318451 233.886780,41.135853 236.263229,48.161255 
	C238.610306,55.099804 237.972610,62.790588 232.291916,69.257202 
z"/>
<path fill="#C9C9C9" opacity="1.000000" stroke="none" 
	d="
M285.085907,22.533222 
	C285.433746,25.147287 285.956909,28.221680 285.947144,31.294378 
	C285.918274,40.373440 285.678711,49.451832 285.198486,58.814789 
	C284.584381,56.584999 283.999634,54.064461 284.054626,51.557953 
	C284.263550,42.033768 284.679260,32.514118 285.085907,22.533222 
z"/>
<path fill="#B8B8B8" opacity="1.000000" stroke="none" 
	d="
M255.552200,34.659904 
	C255.758453,35.543087 255.560623,36.282204 255.362808,37.021320 
	C254.917175,36.999317 254.471558,36.977318 254.025925,36.955315 
	C254.025925,27.663673 254.025925,18.372032 254.035187,8.622379 
	C254.362640,10.802611 254.882217,13.435051 254.958450,16.080265 
	C255.135437,22.222179 255.098404,28.370260 255.552200,34.659904 
z"/>
<path fill="#FBFDFE" opacity="1.000000" stroke="none" 
	d="
M191.771179,55.579987 
	C188.526001,55.978973 185.214813,55.978973 181.641357,55.978973 
	C181.225861,58.049889 180.879013,59.778671 180.207764,61.738373 
	C180.182541,53.579876 182.142029,52.151371 190.628342,54.206036 
	C191.041733,54.306126 191.348663,54.845947 191.771179,55.579987 
z"/>
<path fill="#F0F9FC" opacity="1.000000" stroke="none" 
	d="
M181.874527,3.738391 
	C181.318268,3.861124 180.784836,3.646200 180.124741,3.165798 
	C180.631165,3.067125 181.264267,3.233930 181.874527,3.738391 
z"/>
<path fill="#ACACAC" opacity="1.000000" stroke="none" 
	d="
M330.704346,8.135386 
	C330.841156,8.408118 330.678345,8.612931 330.290985,8.870642 
	C330.229095,8.677835 330.341858,8.392477 330.704346,8.135386 
z"/>
<path fill="#ACACAC" opacity="1.000000" stroke="none" 
	d="
M322.922363,24.735153 
	C322.574097,24.782679 322.492004,24.549580 322.736755,24.160271 
	C322.836700,24.054272 322.961578,24.504742 322.922363,24.735153 
z"/>
<path fill="#ACACAC" opacity="1.000000" stroke="none" 
	d="
M322.931824,55.730881 
	C322.524475,55.753143 322.451996,55.502434 322.778137,55.119682 
	C322.908661,55.030716 322.998596,55.500988 322.931824,55.730881 
z"/>
<path fill="#ACACAC" opacity="1.000000" stroke="none" 
	d="
M330.105499,72.283974 
	C330.370728,72.127579 330.580078,72.282753 330.846619,72.667801 
	C330.664154,72.736229 330.379395,72.635513 330.105499,72.283974 
z"/>
<path fill="#8DD1E9" opacity="1.000000" stroke="none" 
	d="
M145.063950,44.830929 
	C140.740158,44.887058 136.410080,45.109978 132.094528,44.947460 
	C128.531891,44.813286 127.952232,46.996742 128.068207,49.624935 
	C128.314331,55.203056 128.772079,60.771839 129.186951,67.003510 
	C134.516998,67.003510 139.953110,67.157249 145.375153,66.947144 
	C148.748840,66.816414 150.334961,67.791885 150.065567,71.424583 
	C149.833237,74.557823 149.891037,77.221954 145.396866,77.087944 
	C136.582458,76.825096 127.755013,76.999733 118.464859,76.459610 
	C117.991684,53.942513 118.134178,31.957355 117.869194,9.977114 
	C117.809158,4.997343 119.471573,3.748791 124.155113,3.932050 
	C132.468246,4.257328 140.804596,3.988536 149.131241,3.968285 
	C149.408813,6.650001 150.001511,9.359549 149.768631,11.996178 
	C149.700287,12.769936 147.312653,13.843669 145.947205,13.907519 
	C140.977463,14.139907 135.990463,14.002860 130.139282,14.088078 
	C128.829681,19.798580 128.415558,25.428188 127.941956,31.052786 
	C127.684738,34.107597 129.095581,35.215393 132.046661,35.081589 
	C135.193558,34.938900 138.364151,35.227814 141.502426,35.010628 
	C144.947632,34.772202 146.545303,36.052525 146.040100,39.545513 
	C145.783844,41.317318 145.393616,43.069744 145.063950,44.830929 
z"/>
<path fill="#C5E7F4" opacity="1.000000" stroke="none" 
	d="
M148.914612,3.579471 
	C140.804596,3.988536 132.468246,4.257328 124.155113,3.932050 
	C119.471573,3.748791 117.809158,4.997343 117.869194,9.977114 
	C118.134178,31.957355 117.991684,53.942513 118.001999,76.384491 
	C117.676140,76.393509 117.070107,75.953400 117.054230,75.492943 
	C116.666496,64.245071 116.144928,52.996246 116.075935,41.744961 
	C116.031601,34.513802 116.857346,27.280392 116.932144,20.044258 
	C116.977737,15.634563 116.353745,11.216491 115.999695,6.804653 
	C115.780258,4.070239 116.876328,2.894473 119.735161,2.944764 
	C129.387894,3.114568 139.043488,3.121470 148.914612,3.579471 
z"/>
<path fill="#E4F4FA" opacity="1.000000" stroke="none" 
	d="
M145.457611,44.896057 
	C145.393616,43.069744 145.783844,41.317318 146.040100,39.545513 
	C146.545303,36.052525 144.947632,34.772202 141.502426,35.010628 
	C138.364151,35.227814 135.193558,34.938900 132.046661,35.081589 
	C129.095581,35.215393 127.684738,34.107597 127.941956,31.052786 
	C128.415558,25.428188 128.829681,19.798580 129.676880,14.113338 
	C129.737137,20.048485 129.280029,26.039911 129.200653,32.036339 
	C129.192230,32.673691 131.350662,33.778778 132.581665,33.904377 
	C135.360260,34.187862 138.211380,33.770390 140.987411,34.066051 
	C143.140839,34.295403 146.343674,34.540531 147.108475,35.893299 
	C148.721817,38.746925 149.073166,42.336044 145.457611,44.896057 
z"/>
<path fill="#9CD7EC" opacity="1.000000" stroke="none" 
	d="
M157.083847,18.476500 
	C157.439697,20.954897 157.958252,23.895947 157.952423,26.835957 
	C157.932983,36.649006 157.725693,46.461681 157.375885,56.623821 
	C157.109726,44.294987 157.058029,31.616831 157.083847,18.476500 
z"/>
<path fill="#9CD7EC" opacity="1.000000" stroke="none" 
	d="
M157.064194,61.298553 
	C157.204239,61.891640 157.268066,62.785240 157.106140,63.878174 
	C156.916260,63.251362 156.952118,62.425220 157.064194,61.298553 
z"/>
<path fill="#F0F9FC" opacity="1.000000" stroke="none" 
	d="
M165.669678,3.939262 
	C165.509979,4.290941 165.027725,4.684211 164.212952,5.002583 
	C164.369339,4.612073 164.858231,4.296463 165.669678,3.939262 
z"/>
<path fill="#F0F9FC" opacity="1.000000" stroke="none" 
	d="
M163.705170,4.973754 
	C163.804199,5.221523 163.633942,5.540977 163.183624,5.920318 
	C163.080978,5.668616 163.258438,5.357028 163.705170,4.973754 
z"/>
<path fill="#9CD7EC" opacity="1.000000" stroke="none" 
	d="
M156.698334,57.974461 
	C156.964645,58.084251 156.972610,58.292374 156.968643,58.812756 
	C156.784454,58.774277 156.612213,58.423534 156.698334,57.974461 
z"/>
<path fill="#F0F9FC" opacity="1.000000" stroke="none" 
	d="
M162.708237,5.977439 
	C162.771927,6.199734 162.554016,6.497224 162.064713,6.901491 
	C162.004410,6.689723 162.215515,6.371179 162.708237,5.977439 
z"/>
<path fill="none" opacity="1.000000" stroke="none" 
	d="
M346.826294,17.996651 
	C352.109985,17.699305 354.263092,20.021622 354.018402,24.794178 
	C353.924713,26.622066 354.013824,28.458803 353.998260,30.291327 
	C353.965759,34.121109 351.984802,35.917679 348.195496,36.029545 
	C346.262695,36.086601 344.338715,36.440002 342.205261,36.682846 
	C342.205261,30.742512 342.205261,24.777010 342.205261,18.306906 
	C343.552307,18.206656 344.963440,18.101633 346.826294,17.996651 
z"/>
<path fill="none" opacity="1.000000" stroke="none" 
	d="
M311.002930,45.974171 
	C311.001801,49.464424 311.113556,52.465294 310.972717,55.454258 
	C310.767975,59.799690 307.143280,63.945721 303.545715,63.695862 
	C298.845123,63.369392 297.503082,59.820969 297.043640,55.861088 
	C296.815002,53.890305 296.997589,51.871597 296.997406,49.874573 
	C296.996643,41.886436 296.969696,33.898178 297.006836,25.910215 
	C297.031586,20.583958 299.929382,16.973169 304.046692,16.999088 
	C308.152344,17.024937 310.967133,20.630442 310.994904,26.008419 
	C311.028412,32.498608 311.002899,38.989101 311.002930,45.974171 
z"/>
</svg>